# xmcd
#
# Track frame offsets:
#	150
#	18075
#	32400
#	53400
#	69825
#	85275
#	100500
#	113925
#	125400
#	136425
#	149025
#	159375
#	171225
#	184650
#	197175
#	212925
#	224775
#	242250
#	260400
#	268575
#
# Disc length: 3790 seconds
#
# Revision: 1
# Processed by: cddbd v1.5.2PL0 Copyright (c) Steve Scherf et al.
# Submitted via: EasyCDDAExtractor 10.0.5.1
#
DISCID=1e0ecc14
DTITLE=Various Artist - 大享酒廊懷舊小曲
DYEAR=1994
DGENRE=Oldies
TTITLE0=譚錫希、方伊琪 - 新無言的結局
TTITLE1=方伊琪 - 新舞女
TTITLE2=吳啟明、方伊琪 - 帝女花夜曲
TTITLE3=王苫玲 - 新我怎麽哭了
TTITLE4=譚炳文、李香琴 - 分飛燕
TTITLE5=鄭錦昌 - 幾度夕陽紅
TTITLE6=譚炳文 - 你輕呼我
TTITLE7=鄭小秋、汪明荃 - 小河水
TTITLE8=鄭錦昌 - 平湖秋月
TTITLE9=李寶瑩 - 月光光
TTITLE10=鳴莤 - 情花開
TTITLE11=譚炳文 - 舊歡如夢
TTITLE12=麗沙 - 一水隔天涯
TTITLE13=鄭少秋、關菊英 - 戲鳳
TTITLE14=文千歲、吳美英 - 花好月圓
TTITLE15=汪明荃 - 青青河邊草
TTITLE16=麗沙 - 相思淚
TTITLE17=文千崴、李寶瑩 - 梁山伯與祝英台
TTITLE18=任劍輝、紅綫女 - 游龍戲鳳
TTITLE19=葉玉卿 - 來...尋夢
EXTD=
EXTT0=
EXTT1=
EXTT2=
EXTT3=
EXTT4=
EXTT5=
EXTT6=
EXTT7=
EXTT8=
EXTT9=
EXTT10=
EXTT11=
EXTT12=
EXTT13=
EXTT14=
EXTT15=
EXTT16=
EXTT17=
EXTT18=
EXTT19=
PLAYORDER=
